<?xml version="1.0" encoding="iso-8859-1"?>
<!-- Uploaded to: SVG Repo, www.svgrepo.com, Generator: SVG Repo Mixer Tools -->
<svg fill="#000000" height="800px" width="800px" version="1.1" id="Layer_1" xmlns="http://www.w3.org/2000/svg" xmlns:xlink="http://www.w3.org/1999/xlink" 
	 viewBox="0 0 512 512" xml:space="preserve">
<g>
	<g>
		<path d="M447.238,205.003v-70.454c0-8.836-7.164-16-16-16c-34.01,0-64.179,20.926-75.005,55.265
			C228.298,41.923,0,132.838,0,319.498c0,0.07,0.01,0.14,0.011,0.21c0.115,44.591,36.423,80.833,81.04,80.833h171.203
			c8.836,0,16-7.164,16-16c0-8.836-7.164-16-16-16H81.051c-21.441,0-39.7-13.836-46.351-33.043H264.95v-16.003
			c0-31.462-25.597-57.059-57.059-57.059c-8.836,0-16-7.164-16-16c0-8.836,7.164-16,16-16c49.107,0,89.059,39.952,89.059,89.059
			v16.003H496c8.836,0,16-7.164,16-16C512,270.834,485.997,228.348,447.238,205.003z M438.232,281.069
			c-11.69,0-21.166-9.476-21.166-21.166c0-11.69,9.476-21.166,21.166-21.166s21.166,9.476,21.166,21.166
			C459.397,271.593,449.921,281.069,438.232,281.069z"/>
	</g>
</g>
</svg>